<svg width="24" height="24" viewBox="0 0 24 24" fill="none" xmlns="http://www.w3.org/2000/svg">
<path d="M21.8572 1.28564C21.7554 1.28564 21.6509 1.30439 21.5465 1.34725L6.1072 7.55082H1.71434C1.47862 7.55082 1.28577 7.74904 1.28577 7.99547V16.0044C1.28577 16.2508 1.47862 16.449 1.71434 16.449H4.43845C4.33934 16.7598 4.28577 17.0892 4.28577 17.424C4.28577 19.1892 5.72684 20.6249 7.50005 20.6249C8.98398 20.6249 10.2349 19.6178 10.6045 18.2571L21.5492 22.6553C21.6536 22.6955 21.7581 22.7169 21.8599 22.7169C22.3126 22.7169 22.717 22.3365 22.717 21.8276V2.17493C22.7143 1.666 22.3126 1.28564 21.8572 1.28564ZM7.50005 18.7044C6.79023 18.7044 6.21434 18.1312 6.21434 17.424C6.21434 17.124 6.3188 16.8374 6.50898 16.6098L8.78309 17.5231C8.72952 18.1821 8.17505 18.7044 7.50005 18.7044V18.7044ZM20.7858 20.2687L6.82505 14.6598L6.47952 14.5205H3.21434V9.4794H6.47952L6.82505 9.34011L20.7858 3.73118V20.2687V20.2687Z" fill="white"/>
</svg>
